<?xml version="1.0" standalone="no"?>
<!DOCTYPE svg PUBLIC "-//W3C//DTD SVG 20010904//EN"
 "http://www.w3.org/TR/2001/REC-SVG-20010904/DTD/svg10.dtd">
<svg version="1.0" xmlns="http://www.w3.org/2000/svg"
 width="512.000000pt" height="512.000000pt" viewBox="0 0 512.000000 512.000000"
 preserveAspectRatio="xMidYMid meet">
<metadata>
Created by potrace 1.14, written by Peter Selinger 2001-2017
</metadata>
<g transform="translate(0.000000,512.000000) scale(0.100000,-0.100000)"
fill="#000000" stroke="none">
<path d="M530 5113 c-65 -11 -186 -59 -239 -94 -154 -103 -240 -231 -280 -419
-6 -28 -10 -783 -10 -2040 1 -2161 -2 -2060 54 -2185 13 -30 38 -75 56 -101
32 -46 137 -154 151 -154 3 0 13 -6 20 -13 7 -7 36 -23 63 -36 28 -13 59 -27
70 -32 81 -38 66 -38 2140 -38 2134 -1 2048 -3 2170 45 111 44 236 149 299
253 19 31 47 92 63 136 l28 80 0 2030 c0 1117 -3 2046 -7 2065 -28 129 -82
230 -175 325 -72 73 -145 119 -253 157 l-65 23 -2030 1 c-1117 1 -2041 -1
-2055 -3z m3876 -659 c15 -11 37 -33 48 -48 20 -27 21 -39 21 -406 0 -367 -1
-379 -21 -406 -11 -15 -33 -37 -48 -48 -27 -20 -39 -21 -404 -21 -421 0 -406
-3 -457 73 l-24 35 -1 351 c0 204 4 365 10 385 5 19 20 45 32 59 47 51 56 52
450 49 353 -2 368 -3 394 -23z m-1661 -904 c310 -50 602 -264 742 -545 74
-147 102 -277 99 -455 -3 -157 -25 -258 -86 -386 -97 -208 -269 -384 -470
-481 -98 -47 -114 -53 -194 -73 -209 -53 -409 -46 -612 21 -313 104 -557 357
-648 671 -102 352 -2 718 266 974 118 112 229 179 384 233 165 56 340 70 519
41z m-1985 -536 c36 -8 108 -23 160 -35 52 -11 101 -21 108 -22 7 0 10 -7 8
-16 -91 -312 -80 -645 31 -946 41 -112 160 -336 193 -365 3 -3 21 -25 39 -50
57 -76 243 -252 321 -305 41 -27 77 -52 80 -55 10 -10 207 -114 223 -118 4 -1
24 -9 44 -17 84 -35 257 -82 343 -92 25 -3 63 -8 85 -12 44 -8 312 -6 360 2
17 3 50 8 75 12 80 12 243 57 333 92 431 169 767 520 915 958 52 153 76 305
75 480 0 82 -9 203 -18 227 -2 7 -6 29 -9 48 -3 19 -12 60 -20 90 -8 30 -12
58 -10 61 2 4 18 10 36 13 18 3 42 8 53 10 22 5 236 52 273 61 l22 5 0 -1148
c0 -1090 -1 -1150 -19 -1182 -10 -19 -33 -43 -52 -52 -32 -17 -142 -18 -1845
-18 -1285 0 -1820 3 -1843 11 -17 6 -41 25 -54 42 l-22 32 -3 1159 -2 1158 27
-7 c16 -4 57 -13 93 -21z"/>
</g>
</svg>
